<?xml version="1.0" encoding="utf-8"?>
<!-- Generator: Adobe Illustrator 25.4.1, SVG Export Plug-In . SVG Version: 6.00 Build 0)  -->
<svg version="1.1" id="Capa_1" xmlns="http://www.w3.org/2000/svg" xmlns:xlink="http://www.w3.org/1999/xlink" x="0px" y="0px"
	 viewBox="0 0 163.97 19.69" style="enable-background:new 0 0 163.97 19.69;" xml:space="preserve">
<style type="text/css">
	.st0{fill:none;}
	.st1{fill:#2E58FF;stroke:#2E58FF;stroke-width:2;stroke-miterlimit:10;}
	.st2{fill:#FFFFFF;}
	.st3{fill:#EE6F57;stroke:#ED6F58;stroke-width:2;stroke-miterlimit:10;}
	.st4{fill:#070D59;}
	.st5{fill:#EE6F57;}
</style>
<g>
	<g>
		<path class="st0" d="M13.52,4.38C13.1,4,12.51,3.81,11.74,3.81l-1.83,0c-0.3,0-0.6,0.05-0.89,0.14c-0.29,0.09-0.55,0.23-0.78,0.4
			C8,4.52,7.8,4.72,7.63,4.95C7.47,5.18,7.35,5.44,7.28,5.71V5.69C7.25,5.88,7.23,6.11,7.22,6.4c0,0.02,0,0.03,0,0.05l6.99,0
			c-0.01-0.04-0.03-0.07-0.03-0.11C14.16,5.41,13.93,4.76,13.52,4.38z"/>
		<path class="st0" d="M7.26,13.51c0,0.06,0,0.13,0.01,0.23c0.01,0.09,0.02,0.21,0.04,0.36c0.13,0.53,0.44,0.97,0.93,1.32
			c0.49,0.35,1.05,0.52,1.67,0.52h1.83c0.72,0,1.36-0.17,1.91-0.5c0.55-0.33,0.89-0.78,1-1.36c0.02-0.07,0.03-0.14,0.04-0.22
			c0.01-0.07,0.01-0.14,0.01-0.22c0-0.07,0-0.16,0.01-0.27c0-0.04-0.01-0.08-0.01-0.12l-7.44,0C7.26,13.32,7.26,13.4,7.26,13.51z"/>
		<path class="st1" d="M7.22,6.4c0.01-0.29,0.03-0.53,0.06-0.71v0.02c0.06-0.27,0.18-0.53,0.35-0.76C7.8,4.72,8,4.52,8.23,4.35
			c0.23-0.17,0.49-0.31,0.78-0.4C9.31,3.86,9.6,3.81,9.91,3.81l1.83,0c0.77,0,1.36,0.19,1.78,0.57c0.42,0.38,0.64,1.03,0.67,1.95
			c0,0.04,0.02,0.07,0.03,0.11l3.06,0c0.02-0.08,0.03-0.17,0.04-0.26c0.03-0.84-0.1-1.6-0.41-2.3c-0.3-0.7-0.73-1.24-1.28-1.63
			c-0.55-0.39-1.15-0.69-1.82-0.92C13.15,1.11,12.46,1,11.74,1L9.91,1C9.22,1,8.56,1.1,7.92,1.31C7.29,1.52,6.72,1.81,6.2,2.18
			s-0.95,0.8-1.3,1.31c-0.35,0.5-0.59,1.06-0.72,1.66L4.2,5.13C4.12,5.41,4.08,5.68,4.07,5.91C4.07,6.09,4.06,6.27,4.06,6.45l3.17,0
			C7.23,6.43,7.22,6.42,7.22,6.4z"/>
		<path class="st1" d="M14.71,13.37c-0.01,0.11-0.01,0.2-0.01,0.27c0,0.07,0,0.14-0.01,0.22c-0.01,0.07-0.02,0.14-0.04,0.22
			c-0.11,0.58-0.45,1.03-1,1.36c-0.55,0.33-1.19,0.5-1.91,0.5H9.91c-0.63,0-1.18-0.17-1.67-0.52c-0.49-0.35-0.8-0.78-0.93-1.32
			c-0.02-0.14-0.03-0.26-0.04-0.36c-0.01-0.09-0.01-0.17-0.01-0.23c0-0.11,0-0.19,0-0.26l-3.2,0c0,0.19,0,0.39,0.01,0.57
			c0.01,0.24,0.06,0.58,0.16,1.03c0.1,0.48,0.32,0.94,0.67,1.4C5.42,17,6.11,17.6,7,18.03c0.88,0.44,1.85,0.66,2.91,0.66h1.83
			c0.87,0,1.67-0.1,2.42-0.29c0.75-0.19,1.39-0.51,1.94-0.94c0.27-0.22,0.52-0.49,0.75-0.81c0.22-0.32,0.42-0.68,0.58-1.06
			c0.16-0.38,0.28-0.78,0.37-1.2c0.08-0.38,0.12-0.76,0.13-1.15l-3.22,0C14.7,13.29,14.71,13.33,14.71,13.37z"/>
		<path class="st2" d="M14.68,13.03c-0.02-0.12-0.06-0.23-0.12-0.35c-0.06-0.12-0.13-0.22-0.23-0.3c-0.34-0.26-0.85-0.46-1.54-0.6
			c-0.69-0.14-1.47-0.31-2.33-0.5c-0.77-0.16-1.54-0.34-2.3-0.54c-0.76-0.2-1.45-0.46-2.06-0.79C5.5,9.63,5,9.22,4.63,8.73
			C4.25,8.24,4.06,7.64,4.06,6.92v-0.3c0-0.06,0-0.11,0-0.17l-3.54,0C0.23,6.45,0,6.68,0,6.97l0,5.75c0,0.29,0.23,0.52,0.52,0.52
			l3.54,0l3.2,0l7.44,0C14.7,13.18,14.7,13.11,14.68,13.03z M4.06,13.14V13.1C4.06,13.11,4.06,13.12,4.06,13.14
			C4.06,13.14,4.06,13.14,4.06,13.14z"/>
		<path class="st2" d="M17.28,6.45l-3.06,0l-6.99,0c0.01,0.27,0.15,0.54,0.44,0.8C7.99,7.53,8.34,7.72,8.7,7.81l2.77,0.69
			c0.72,0.19,1.34,0.34,1.85,0.46c0.51,0.12,0.92,0.23,1.23,0.33c0.32,0.1,0.62,0.21,0.9,0.33c0.28,0.12,0.54,0.26,0.78,0.4
			c0.5,0.3,0.9,0.71,1.21,1.23c0.31,0.52,0.47,1.15,0.47,1.88c0,0.04,0,0.07-0.01,0.11l4.06,0c0.29,0,0.52-0.23,0.52-0.52l0-5.75
			c0-0.29-0.23-0.52-0.52-0.52L17.28,6.45z"/>
		<path class="st3" d="M17.45,11.26c-0.31-0.52-0.72-0.93-1.21-1.23c-0.24-0.14-0.5-0.28-0.78-0.4c-0.28-0.12-0.58-0.23-0.9-0.33
			c-0.3-0.1-0.71-0.21-1.23-0.33c-0.51-0.12-1.13-0.28-1.85-0.46L8.7,7.81C8.34,7.72,7.99,7.53,7.67,7.24
			c-0.29-0.26-0.43-0.53-0.44-0.8l-3.17,0c0,0.06,0,0.11,0,0.17v0.3c0,0.72,0.19,1.33,0.57,1.81C5,9.22,5.5,9.63,6.11,9.95
			c0.61,0.32,1.3,0.59,2.06,0.79c0.76,0.2,1.53,0.38,2.3,0.54c0.87,0.19,1.64,0.35,2.33,0.5c0.69,0.14,1.2,0.35,1.54,0.6
			c0.1,0.09,0.17,0.19,0.23,0.3c0.06,0.12,0.1,0.23,0.12,0.35c0.02,0.07,0.01,0.14,0.02,0.21l3.22,0c0-0.04,0.01-0.07,0.01-0.11
			C17.92,12.41,17.77,11.78,17.45,11.26z"/>
		<path class="st4" d="M4.06,13.14C4.06,13.14,4.06,13.14,4.06,13.14c0-0.02,0-0.03,0-0.04V13.14z"/>
	</g>
	<g>
		<g>
			<path class="st2" d="M27,14.59V4.2c0-0.11,0.08-0.18,0.18-0.18h0.48c0.09,0,0.17,0.05,0.22,0.12l2.97,4.69
				c0.02,0.03,0.08,0.03,0.09,0l2.98-4.69c0.05-0.08,0.12-0.12,0.22-0.12h0.48c0.11,0,0.18,0.08,0.18,0.18v10.39
				c0,0.11-0.08,0.18-0.18,0.18h-0.45c-0.11,0-0.18-0.08-0.18-0.18V5.6c0-0.06-0.05-0.08-0.08-0.02l-2.66,4.21
				c-0.05,0.09-0.12,0.12-0.21,0.12h-0.25c-0.09,0-0.17-0.05-0.21-0.12l-2.67-4.21c-0.03-0.06-0.08-0.05-0.08,0.02v8.99
				c0,0.11-0.08,0.18-0.18,0.18h-0.45C27.08,14.77,27,14.69,27,14.59z"/>
			<path class="st2" d="M41.89,9.49v5.1c0,0.11-0.08,0.18-0.18,0.18h-0.45c-0.11,0-0.18-0.08-0.18-0.18v-0.66
				c0-0.05-0.03-0.08-0.08-0.03c-0.55,0.66-1.49,1-2.47,1c-1.28,0-2.52-0.58-2.52-2.18c0-1.52,1.18-2.46,3.17-2.46h1.84
				c0.03,0,0.06-0.03,0.06-0.06V9.5c0-1.09-0.55-1.87-1.97-1.87c-1.04,0-1.75,0.45-1.92,1.17c-0.03,0.11-0.11,0.17-0.22,0.15
				l-0.48-0.06c-0.11-0.02-0.18-0.08-0.17-0.17c0.2-1.08,1.28-1.81,2.8-1.81C40.97,6.9,41.89,7.95,41.89,9.49z M41.07,12.39v-1.4
				c0-0.03-0.03-0.06-0.06-0.06h-1.75c-1.44,0-2.44,0.63-2.44,1.74c0,1.04,0.83,1.52,1.86,1.52C39.87,14.19,41.07,13.59,41.07,12.39
				z M40.32,4l-0.98,1.64c-0.05,0.09-0.12,0.12-0.22,0.12h-0.35c-0.14,0-0.18-0.09-0.12-0.22l0.91-1.64
				c0.05-0.08,0.14-0.12,0.23-0.12h0.41C40.34,3.79,40.4,3.86,40.32,4z"/>
			<path class="st2" d="M42.78,12.83v-0.17c0-0.11,0.08-0.18,0.18-0.18h0.43c0.11,0,0.18,0.06,0.18,0.15v0.17
				c0,0.72,0.8,1.38,2,1.38c1.17,0,1.95-0.63,1.95-1.44c0-0.92-1-1.18-2.07-1.51c-1.31-0.4-2.63-0.81-2.63-2.21
				c0-1.26,1.11-2.06,2.7-2.06c1.66,0,2.75,0.88,2.75,2.04v0.02c0,0.11-0.08,0.18-0.18,0.18h-0.41c-0.11,0-0.18-0.05-0.18-0.11V9.01
				c0-0.75-0.75-1.37-1.98-1.37c-1.14,0-1.91,0.52-1.91,1.34c0,0.86,0.91,1.15,2,1.47c1.31,0.38,2.73,0.78,2.73,2.24
				c0,1.28-1.09,2.15-2.75,2.15C43.9,14.85,42.78,13.94,42.78,12.83z"/>
			<path class="st2" d="M50.91,12.1v-0.48c0-0.11,0.08-0.18,0.18-0.18h0.41c0.11,0,0.18,0.08,0.18,0.18v0.43
				c0,1.24,1.09,2.12,2.9,2.12c1.74,0,2.61-0.78,2.61-2c0-1.15-0.85-1.74-2.97-2.63c-1.91-0.8-3.17-1.32-3.17-3.03
				c0-1.69,1.23-2.63,3.27-2.63c2.27,0,3.58,1.12,3.58,2.83v0.32c0,0.11-0.08,0.18-0.18,0.18H57.3c-0.11,0-0.18-0.08-0.18-0.18V6.77
				c0-1.24-0.98-2.15-2.81-2.15c-1.55,0-2.43,0.66-2.43,1.87c0,1.26,0.91,1.64,2.81,2.41c2.01,0.81,3.33,1.58,3.33,3.24
				c0,1.61-1.23,2.75-3.5,2.75C52.29,14.89,50.91,13.79,50.91,12.1z"/>
			<path class="st2" d="M58.93,4.8c0-0.38,0.31-0.66,0.71-0.66c0.41,0,0.71,0.28,0.71,0.66c0,0.38-0.29,0.68-0.71,0.68
				C59.23,5.48,58.93,5.18,58.93,4.8z M59.23,14.59V7.21c0-0.11,0.08-0.18,0.18-0.18h0.45c0.11,0,0.18,0.08,0.18,0.18v7.37
				c0,0.11-0.08,0.18-0.18,0.18h-0.45C59.31,14.77,59.23,14.69,59.23,14.59z"/>
			<path class="st2" d="M66.65,7.03h0.45c0.11,0,0.18,0.08,0.18,0.18v7.39c0,2.38-1.54,3.32-3.96,3.23
				c-0.12-0.02-0.18-0.09-0.18-0.2l0.02-0.38c0-0.11,0.06-0.18,0.18-0.17c2.2,0.06,3.13-0.74,3.13-2.49v-0.77
				c0-0.06-0.05-0.08-0.08-0.03c-0.41,0.63-1.09,1.06-2.1,1.06c-1.32,0-2.41-0.75-2.75-2.04c-0.12-0.46-0.17-1.09-0.17-1.89
				c0-0.81,0.03-1.46,0.18-1.98c0.32-1.18,1.32-2.03,2.7-2.03c0.98,0,1.69,0.4,2.14,1.04c0.03,0.05,0.08,0.02,0.08-0.03V7.21
				C66.47,7.1,66.55,7.03,66.65,7.03z M66.47,10.9c0-1.17-0.02-1.32-0.08-1.64c-0.15-0.89-0.88-1.63-1.98-1.63
				c-1.12,0-1.84,0.74-2.09,1.63c-0.09,0.31-0.14,0.72-0.14,1.63c0,0.91,0.08,1.41,0.14,1.63c0.22,0.91,0.98,1.63,2.09,1.63
				c1.15,0,1.83-0.75,1.98-1.63C66.45,12.22,66.47,12.07,66.47,10.9z"/>
			<path class="st2" d="M74.35,9.55v5.04c0,0.11-0.08,0.18-0.18,0.18h-0.45c-0.11,0-0.18-0.08-0.18-0.18V9.7
				c0-1.21-0.81-2.06-1.98-2.06c-1.24,0-2.07,0.83-2.07,2.03v4.92c0,0.11-0.08,0.18-0.18,0.18h-0.45c-0.11,0-0.18-0.08-0.18-0.18
				V7.21c0-0.11,0.08-0.18,0.18-0.18h0.45c0.11,0,0.18,0.08,0.18,0.18v0.72c0,0.06,0.03,0.08,0.06,0.03
				c0.45-0.68,1.21-1.04,2.18-1.04C73.29,6.92,74.35,7.96,74.35,9.55z"/>
			<path class="st2" d="M75.58,4.8c0-0.38,0.31-0.66,0.71-0.66c0.41,0,0.71,0.28,0.71,0.66c0,0.38-0.29,0.68-0.71,0.68
				C75.89,5.48,75.58,5.18,75.58,4.8z M75.89,14.59V7.21c0-0.11,0.08-0.18,0.18-0.18h0.45c0.11,0,0.18,0.08,0.18,0.18v7.37
				c0,0.11-0.08,0.18-0.18,0.18h-0.45C75.97,14.77,75.89,14.69,75.89,14.59z"/>
			<path class="st2" d="M81.1,4.02h0.37c0.11,0,0.18,0.08,0.18,0.18v0.35c0,0.11-0.08,0.18-0.18,0.18h-0.31
				c-1.28,0-1.57,0.61-1.57,1.83v0.4c0,0.03,0.03,0.06,0.06,0.06h1.77c0.11,0,0.18,0.08,0.18,0.18V7.6c0,0.11-0.08,0.18-0.18,0.18
				h-1.77c-0.03,0-0.06,0.03-0.06,0.06v6.74c0,0.11-0.08,0.18-0.18,0.18h-0.45c-0.11,0-0.18-0.08-0.18-0.18V7.84
				c0-0.03-0.03-0.06-0.06-0.06h-0.98c-0.11,0-0.18-0.08-0.18-0.18V7.21c0-0.11,0.08-0.18,0.18-0.18h0.98
				c0.03,0,0.06-0.03,0.06-0.06V6.54C78.78,4.81,79.27,4.02,81.1,4.02z M84.92,4.8c0,0.38-0.29,0.68-0.71,0.68
				c-0.4,0-0.71-0.29-0.71-0.68c0-0.38,0.31-0.66,0.71-0.66C84.63,4.14,84.92,4.42,84.92,4.8z M83.82,14.59V7.21
				c0-0.11,0.08-0.18,0.18-0.18h0.45c0.11,0,0.18,0.08,0.18,0.18v7.37c0,0.11-0.08,0.18-0.18,0.18H84
				C83.89,14.77,83.82,14.69,83.82,14.59z"/>
			<path class="st2" d="M86.2,12.8c-0.14-0.51-0.2-1.12-0.2-1.92c0-0.88,0.08-1.43,0.2-1.91c0.32-1.23,1.4-2.07,2.87-2.07
				c1.49,0,2.61,0.88,2.89,1.94c0.05,0.14,0.08,0.29,0.09,0.4c0.02,0.12-0.06,0.18-0.17,0.2L91.45,9.5
				c-0.11,0.02-0.18-0.05-0.22-0.17c0-0.06-0.02-0.12-0.03-0.18c-0.18-0.83-1-1.52-2.14-1.52c-1.15,0-1.92,0.68-2.12,1.63
				c-0.08,0.32-0.14,0.91-0.14,1.64c0,0.78,0.06,1.32,0.14,1.63c0.2,0.98,0.97,1.64,2.12,1.64c1.14,0,1.98-0.68,2.14-1.54l0.02-0.06
				c0.02-0.11,0.11-0.15,0.21-0.14l0.41,0.05c0.11,0.02,0.18,0.09,0.17,0.22c-0.02,0.06-0.03,0.15-0.06,0.25
				c-0.28,1.14-1.41,1.95-2.89,1.95S86.54,14.05,86.2,12.8z"/>
			<path class="st2" d="M98.37,9.49v5.1c0,0.11-0.08,0.18-0.18,0.18h-0.45c-0.11,0-0.18-0.08-0.18-0.18v-0.66
				c0-0.05-0.03-0.08-0.08-0.03c-0.55,0.66-1.49,1-2.47,1c-1.28,0-2.52-0.58-2.52-2.18c0-1.52,1.18-2.46,3.17-2.46h1.84
				c0.03,0,0.06-0.03,0.06-0.06V9.5c0-1.09-0.55-1.87-1.97-1.87c-1.04,0-1.75,0.45-1.92,1.17c-0.03,0.11-0.11,0.17-0.22,0.15
				l-0.48-0.06c-0.11-0.02-0.18-0.08-0.17-0.17C93,7.64,94.08,6.9,95.6,6.9C97.44,6.9,98.37,7.95,98.37,9.49z M97.55,12.39v-1.4
				c0-0.03-0.03-0.06-0.06-0.06h-1.75c-1.44,0-2.44,0.63-2.44,1.74c0,1.04,0.83,1.52,1.86,1.52C96.35,14.19,97.55,13.59,97.55,12.39
				z"/>
			<path class="st2" d="M104.62,4.02h0.45c0.11,0,0.18,0.08,0.18,0.18v10.39c0,0.11-0.08,0.18-0.18,0.18h-0.45
				c-0.11,0-0.18-0.08-0.18-0.18v-0.72c0-0.06-0.05-0.08-0.08-0.03c-0.45,0.68-1.17,1.06-2.07,1.06c-1.43,0-2.41-0.81-2.75-2.04
				c-0.14-0.52-0.17-1.12-0.17-1.94c0-0.8,0.02-1.41,0.15-1.94c0.32-1.24,1.32-2.07,2.77-2.07c0.91,0,1.63,0.38,2.07,1.04
				c0.03,0.05,0.08,0.02,0.08-0.03V4.2C104.44,4.09,104.51,4.02,104.62,4.02z M104.42,10.91c0-1.15-0.06-1.49-0.2-1.87
				c-0.2-0.8-0.86-1.41-1.84-1.41c-1,0-1.72,0.6-1.95,1.4c-0.15,0.37-0.25,0.71-0.25,1.87c0,1.12,0.08,1.44,0.2,1.83
				c0.22,0.86,0.98,1.44,2,1.44c1,0,1.64-0.63,1.86-1.44C104.36,12.37,104.42,12.04,104.42,10.91z"/>
			<path class="st2" d="M106.69,12.8c-0.15-0.51-0.18-1.14-0.18-1.92c0-0.81,0.05-1.41,0.17-1.91c0.35-1.24,1.43-2.07,2.9-2.07
				c1.46,0,2.55,0.83,2.89,2.07c0.14,0.51,0.17,1.14,0.17,1.91c0,0.8-0.03,1.41-0.17,1.92c-0.34,1.26-1.44,2.09-2.89,2.09
				C108.11,14.89,107.05,14.06,106.69,12.8z M111.72,12.53c0.08-0.35,0.09-0.95,0.09-1.63c0-0.75-0.02-1.29-0.09-1.63
				c-0.23-0.98-1.03-1.64-2.15-1.64s-1.91,0.66-2.14,1.64c-0.08,0.34-0.09,0.92-0.09,1.63c0,0.74,0.02,1.29,0.09,1.63
				c0.23,1,1.01,1.64,2.15,1.64C110.69,14.17,111.49,13.51,111.72,12.53z"/>
		</g>
		<g>
			<path class="st2" d="M118.05,12.1v-0.48c0-0.11,0.08-0.18,0.18-0.18h0.41c0.11,0,0.18,0.08,0.18,0.18v0.43
				c0,1.24,1.09,2.12,2.9,2.12c1.74,0,2.61-0.78,2.61-2c0-1.15-0.85-1.74-2.97-2.63c-1.91-0.8-3.17-1.32-3.17-3.03
				c0-1.69,1.23-2.63,3.27-2.63c2.27,0,3.58,1.12,3.58,2.83v0.32c0,0.11-0.08,0.18-0.18,0.18h-0.45c-0.11,0-0.18-0.08-0.18-0.18
				V6.77c0-1.24-0.98-2.15-2.81-2.15c-1.55,0-2.43,0.66-2.43,1.87c0,1.26,0.91,1.64,2.81,2.41c2.01,0.81,3.33,1.58,3.33,3.24
				c0,1.61-1.23,2.75-3.5,2.75C119.43,14.89,118.05,13.79,118.05,12.1z"/>
			<path class="st2" d="M131.19,12.93c0.06-0.11,0.14-0.14,0.25-0.09l0.28,0.11c0.11,0.05,0.15,0.14,0.11,0.25
				c-0.43,1.01-1.41,1.71-2.78,1.71c-1.44,0-2.43-0.77-2.81-1.95c-0.17-0.55-0.22-1.21-0.22-2.06c0-0.83,0-1.37,0.12-1.84
				c0.32-1.28,1.38-2.14,2.87-2.14c1.67,0,2.67,0.95,2.93,2.41c0.09,0.41,0.11,0.77,0.11,1.64c0,0.14-0.08,0.2-0.18,0.2h-4.99
				c-0.03,0-0.06,0.02-0.06,0.06c0,0.61,0.02,1.04,0.08,1.32c0.22,0.97,1.03,1.64,2.21,1.64C130.11,14.17,130.85,13.68,131.19,12.93
				z M126.81,10.44c0,0.05,0.03,0.06,0.06,0.06h4.29c0.03,0,0.06-0.02,0.06-0.06c0-0.49-0.03-0.94-0.08-1.17
				c-0.22-0.97-1-1.64-2.14-1.64c-1.14,0-1.89,0.66-2.09,1.6C126.84,9.5,126.82,9.92,126.81,10.44z"/>
			<path class="st2" d="M138.95,9.55v5.04c0,0.11-0.08,0.18-0.18,0.18h-0.45c-0.11,0-0.18-0.08-0.18-0.18V9.7
				c0-1.21-0.81-2.06-1.98-2.06c-1.24,0-2.07,0.83-2.07,2.03v4.92c0,0.11-0.08,0.18-0.18,0.18h-0.45c-0.11,0-0.18-0.08-0.18-0.18
				V7.21c0-0.11,0.08-0.18,0.18-0.18h0.45c0.11,0,0.18,0.08,0.18,0.18v0.72c0,0.06,0.03,0.08,0.06,0.03
				c0.45-0.68,1.21-1.04,2.18-1.04C137.89,6.92,138.95,7.96,138.95,9.55z M134.63,5.32c-0.08,0.09-0.15,0.12-0.26,0.05l-0.14-0.09
				c-0.11-0.08-0.12-0.17-0.06-0.26c0.32-0.51,0.75-0.71,1.18-0.71c0.38,0,0.65,0.18,0.92,0.35c0.25,0.15,0.51,0.34,0.77,0.34
				c0.26,0,0.51-0.08,0.75-0.45c0.08-0.09,0.17-0.12,0.26-0.06l0.14,0.09c0.09,0.06,0.12,0.15,0.08,0.25
				c-0.34,0.57-0.86,0.78-1.24,0.78c-0.38,0-0.68-0.2-0.92-0.37c-0.25-0.18-0.43-0.32-0.71-0.32C135.09,4.92,134.89,5,134.63,5.32z"
				/>
			<path class="st2" d="M145.69,9.49v5.1c0,0.11-0.08,0.18-0.18,0.18h-0.45c-0.11,0-0.18-0.08-0.18-0.18v-0.66
				c0-0.05-0.03-0.08-0.08-0.03c-0.55,0.66-1.49,1-2.47,1c-1.28,0-2.52-0.58-2.52-2.18c0-1.52,1.18-2.46,3.17-2.46h1.84
				c0.03,0,0.06-0.03,0.06-0.06V9.5c0-1.09-0.55-1.87-1.97-1.87c-1.04,0-1.75,0.45-1.92,1.17c-0.03,0.11-0.11,0.17-0.22,0.15
				l-0.48-0.06c-0.11-0.02-0.18-0.08-0.17-0.17c0.2-1.08,1.28-1.81,2.8-1.81C144.77,6.9,145.69,7.95,145.69,9.49z M144.88,12.39
				v-1.4c0-0.03-0.03-0.06-0.06-0.06h-1.75c-1.44,0-2.44,0.63-2.44,1.74c0,1.04,0.83,1.52,1.86,1.52
				C143.68,14.19,144.88,13.59,144.88,12.39z"/>
			<path class="st2" d="M152.67,9.55v5.04c0,0.11-0.08,0.18-0.18,0.18h-0.45c-0.11,0-0.18-0.08-0.18-0.18V9.7
				c0-1.21-0.81-2.06-1.98-2.06c-1.24,0-2.07,0.83-2.07,2.03v4.92c0,0.11-0.08,0.18-0.18,0.18h-0.45c-0.11,0-0.18-0.08-0.18-0.18
				V7.21c0-0.11,0.08-0.18,0.18-0.18h0.45c0.11,0,0.18,0.08,0.18,0.18v0.72c0,0.06,0.03,0.08,0.06,0.03
				c0.45-0.68,1.21-1.04,2.18-1.04C151.61,6.92,152.67,7.96,152.67,9.55z"/>
			<path class="st2" d="M157.12,7.72h-1.77c-0.03,0-0.06,0.03-0.06,0.06v4.84c0,1.08,0.49,1.41,1.49,1.41h0.32
				c0.11,0,0.18,0.08,0.18,0.18v0.35c0,0.11-0.06,0.18-0.18,0.18c-0.15,0-0.29,0.02-0.43,0.02c-1.29,0-2.17-0.37-2.18-1.94V7.78
				c0-0.03-0.03-0.06-0.06-0.06h-0.89c-0.11,0-0.18-0.08-0.18-0.18V7.21c0-0.11,0.08-0.18,0.18-0.18h0.89
				c0.03,0,0.06-0.03,0.06-0.06V5.25c0-0.11,0.08-0.18,0.18-0.18h0.43c0.11,0,0.18,0.08,0.18,0.18v1.72c0,0.03,0.03,0.06,0.06,0.06
				h1.77c0.11,0,0.18,0.08,0.18,0.18v0.32C157.31,7.64,157.23,7.72,157.12,7.72z"/>
			<path class="st2" d="M163.11,12.93c0.06-0.11,0.14-0.14,0.25-0.09l0.28,0.11c0.11,0.05,0.15,0.14,0.11,0.25
				c-0.43,1.01-1.41,1.71-2.78,1.71c-1.44,0-2.43-0.77-2.81-1.95c-0.17-0.55-0.22-1.21-0.22-2.06c0-0.83,0-1.37,0.12-1.84
				c0.32-1.28,1.38-2.14,2.87-2.14c1.67,0,2.67,0.95,2.93,2.41c0.09,0.41,0.11,0.77,0.11,1.64c0,0.14-0.08,0.2-0.18,0.2h-4.99
				c-0.03,0-0.06,0.02-0.06,0.06c0,0.61,0.02,1.04,0.08,1.32c0.22,0.97,1.03,1.64,2.21,1.64C162.04,14.17,162.78,13.68,163.11,12.93
				z M158.74,10.44c0,0.05,0.03,0.06,0.06,0.06h4.29c0.03,0,0.06-0.02,0.06-0.06c0-0.49-0.03-0.94-0.08-1.17
				c-0.22-0.97-1-1.64-2.14-1.64s-1.89,0.66-2.09,1.6C158.77,9.5,158.75,9.92,158.74,10.44z"/>
		</g>
		<circle class="st5" cx="115.3" cy="13.98" r="0.97"/>
	</g>
</g>
</svg>
