<?xml version="1.0" encoding="utf-8"?>
<!-- Generator: Adobe Illustrator 25.4.1, SVG Export Plug-In . SVG Version: 6.00 Build 0)  -->
<svg version="1.1" xmlns="http://www.w3.org/2000/svg" xmlns:xlink="http://www.w3.org/1999/xlink" x="0px" y="0px"
	 viewBox="0 0 509.73 57" style="enable-background:new 0 0 509.73 57;" xml:space="preserve">
<style type="text/css">
	.st0{display:none;}
	.st1{display:inline;}
	.st2{fill:none;}
	.st3{fill:#2E58FF;stroke:#2E58FF;stroke-width:2;stroke-miterlimit:10;}
	.st4{fill:#070D59;}
	.st5{fill:#EE6F57;stroke:#ED6F58;stroke-width:2;stroke-miterlimit:10;}
	.st6{font-family:'Barlow-Light';}
	.st7{font-size:47.7617px;}
	.st8{letter-spacing:-3;}
	.st9{fill:#2E58FF;}
	.st10{fill:#EE6F57;}
	.st11{fill:none;stroke:#2E58FF;stroke-width:2;stroke-miterlimit:10;}
</style>
<g id="Capa_1" class="st0">
	<g class="st1">
		<g>
			<path class="st2" d="M42.02,11.51c-1.3-1.19-3.14-1.78-5.54-1.78l-5.69,0c-0.95,0-1.87,0.15-2.77,0.44
				c-0.9,0.29-1.71,0.71-2.43,1.24c-0.72,0.54-1.35,1.16-1.87,1.88c-0.52,0.72-0.89,1.5-1.08,2.35v-0.07
				c-0.1,0.58-0.16,1.32-0.19,2.22c0,0.05,0.01,0.09,0.02,0.14l21.74,0c-0.03-0.11-0.08-0.22-0.1-0.34
				C44.01,14.72,43.32,12.7,42.02,11.51z"/>
			<path class="st2" d="M22.57,39.88c0,0.18,0.01,0.41,0.04,0.71c0.03,0.29,0.06,0.66,0.11,1.11c0.4,1.66,1.36,3.02,2.88,4.1
				s3.25,1.61,5.2,1.61l5.69,0c2.24,0,4.23-0.51,5.95-1.55c1.72-1.03,2.76-2.44,3.1-4.23c0.05-0.22,0.09-0.45,0.11-0.67
				s0.04-0.45,0.04-0.67s0.01-0.5,0.04-0.84c0.01-0.12-0.02-0.25-0.03-0.38l-23.12,0C22.57,39.29,22.57,39.54,22.57,39.88z"/>
			<path class="st3" d="M22.46,17.79c0.03-0.9,0.09-1.63,0.19-2.22v0.07c0.2-0.85,0.56-1.63,1.08-2.35
				c0.52-0.72,1.15-1.34,1.87-1.88c0.72-0.54,1.53-0.95,2.43-1.24c0.9-0.29,1.82-0.44,2.77-0.44l5.69,0c2.39,0,4.24,0.59,5.54,1.78
				c1.3,1.19,1.99,3.21,2.09,6.08c0.01,0.12,0.07,0.23,0.1,0.34l9.52,0c0.05-0.26,0.09-0.53,0.11-0.81c0.1-2.6-0.32-4.98-1.27-7.15
				C51.62,7.79,50.3,6.1,48.6,4.89c-1.7-1.21-3.58-2.16-5.65-2.85C40.88,1.35,38.73,1,36.48,1L30.8,1c-2.14,0-4.2,0.33-6.17,0.97
				c-1.97,0.65-3.75,1.54-5.35,2.69s-2.94,2.5-4.04,4.06c-1.1,1.57-1.85,3.29-2.25,5.17l0.08-0.07c-0.25,0.9-0.39,1.71-0.41,2.45
				c-0.02,0.56-0.02,1.11-0.03,1.65l9.84,0C22.47,17.88,22.46,17.84,22.46,17.79z"/>
			<path class="st3" d="M45.72,39.45c-0.03,0.33-0.04,0.62-0.04,0.84s-0.01,0.45-0.04,0.67s-0.06,0.45-0.11,0.67
				c-0.35,1.79-1.38,3.2-3.1,4.23c-1.72,1.03-3.7,1.55-5.95,1.55l-5.69,0c-1.95,0-3.68-0.54-5.2-1.61s-2.48-2.44-2.88-4.1
				c-0.05-0.45-0.09-0.82-0.11-1.11c-0.03-0.29-0.04-0.53-0.04-0.71c0-0.34,0-0.6,0-0.81h-9.94c0,0.6,0.01,1.2,0.03,1.79
				c0.03,0.74,0.19,1.8,0.49,3.19c0.3,1.48,1,2.93,2.09,4.37c1.59,2.33,3.76,4.18,6.51,5.54C24.49,55.32,27.51,56,30.8,56h5.69
				c2.69,0,5.2-0.3,7.52-0.91c2.32-0.6,4.33-1.58,6.02-2.92c0.85-0.67,1.62-1.51,2.32-2.52c0.7-1.01,1.3-2.1,1.8-3.29
				c0.5-1.19,0.88-2.43,1.16-3.73c0.25-1.19,0.37-2.38,0.39-3.57l-10,0C45.7,39.19,45.73,39.32,45.72,39.45z"/>
			<path class="st4" d="M45.65,38.41c-0.07-0.36-0.2-0.72-0.37-1.07c-0.18-0.36-0.41-0.67-0.71-0.94c-1.05-0.81-2.64-1.43-4.79-1.88
				c-2.15-0.45-4.56-0.96-7.26-1.55c-2.39-0.49-4.78-1.05-7.14-1.68c-2.37-0.63-4.5-1.44-6.4-2.45c-1.9-1.01-3.43-2.27-4.6-3.79
				c-1.17-1.52-1.76-3.4-1.76-5.64l0-0.94c0-0.17,0.01-0.36,0.01-0.53l-11,0c-0.9,0-1.63,0.73-1.63,1.63l0,17.89
				c0,0.9,0.73,1.63,1.63,1.63l11,0h9.94l23.12,0C45.69,38.85,45.7,38.63,45.65,38.41z M12.62,38.74v-0.13c0,0.04,0,0.07,0,0.11
				C12.62,38.73,12.62,38.73,12.62,38.74z"/>
			<path class="st4" d="M53.73,17.93l-9.52,0l-21.74,0c0.02,0.85,0.47,1.67,1.37,2.48c1,0.9,2.07,1.48,3.22,1.75l8.6,2.15
				c2.24,0.58,4.16,1.06,5.76,1.44c1.6,0.38,2.87,0.73,3.81,1.04c1,0.31,1.93,0.66,2.81,1.04c0.87,0.38,1.68,0.8,2.43,1.24
				c1.55,0.94,2.8,2.22,3.78,3.83c0.97,1.61,1.46,3.56,1.46,5.84c0,0.11-0.02,0.22-0.02,0.33l12.61,0c0.9,0,1.63-0.73,1.63-1.63
				V19.56c0-0.9-0.73-1.63-1.63-1.63L53.73,17.93z"/>
			<path class="st5" d="M54.25,32.9c-0.97-1.61-2.23-2.89-3.78-3.83c-0.75-0.45-1.56-0.86-2.43-1.24c-0.87-0.38-1.81-0.73-2.81-1.04
				c-0.95-0.31-2.22-0.66-3.81-1.04c-1.6-0.38-3.52-0.86-5.76-1.44l-8.6-2.15c-1.15-0.27-2.22-0.85-3.22-1.75
				c-0.9-0.8-1.34-1.63-1.37-2.48l-9.84,0c0,0.18-0.01,0.36-0.01,0.53l0,0.94c0,2.24,0.59,4.12,1.76,5.64
				c1.17,1.52,2.7,2.79,4.6,3.79c1.89,1.01,4.03,1.82,6.4,2.45c2.37,0.63,4.75,1.19,7.14,1.68c2.69,0.58,5.11,1.1,7.26,1.55
				c2.14,0.45,3.74,1.07,4.79,1.88c0.3,0.27,0.54,0.58,0.71,0.94c0.17,0.36,0.3,0.72,0.37,1.07c0.05,0.23,0.04,0.45,0.05,0.66l10,0
				c0-0.11,0.02-0.22,0.02-0.33C55.71,36.46,55.22,34.51,54.25,32.9z"/>
			<path class="st4" d="M12.62,38.74c0-0.01,0-0.01,0-0.02c0-0.04,0-0.07,0-0.11V38.74z"/>
		</g>
		<g>
			<text transform="matrix(1 0 0 1 79.0095 43.8074)" class="st4 st6 st7 st8">Más Significado</text>
			<g>
				<text transform="matrix(1 0 0 1 364.0095 43.8074)" class="st9 st6 st7 st8">Señante</text>
			</g>
			<circle class="st10" cx="358.43" cy="41.34" r="3"/>
		</g>
	</g>
</g>
<g id="Capa_1_copia">
	<g>
		<g>
			<path class="st2" d="M42.02,11.51c-1.3-1.19-3.14-1.78-5.54-1.78l-5.69,0c-0.95,0-1.87,0.15-2.77,0.44
				c-0.9,0.29-1.71,0.71-2.43,1.24c-0.72,0.54-1.35,1.16-1.87,1.88c-0.52,0.72-0.89,1.5-1.08,2.35v-0.07
				c-0.1,0.58-0.16,1.32-0.19,2.22c0,0.05,0.01,0.09,0.02,0.14l21.74,0c-0.03-0.11-0.08-0.22-0.1-0.34
				C44.01,14.72,43.32,12.7,42.02,11.51z"/>
			<path class="st2" d="M22.57,39.88c0,0.18,0.01,0.41,0.04,0.71c0.03,0.29,0.06,0.66,0.11,1.11c0.4,1.66,1.36,3.02,2.88,4.1
				s3.25,1.61,5.2,1.61l5.69,0c2.24,0,4.23-0.51,5.95-1.55c1.72-1.03,2.76-2.44,3.1-4.23c0.05-0.22,0.09-0.45,0.11-0.67
				s0.04-0.45,0.04-0.67s0.01-0.5,0.04-0.84c0.01-0.12-0.02-0.25-0.03-0.38l-23.12,0C22.57,39.29,22.57,39.54,22.57,39.88z"/>
			<g>
				<path class="st9" d="M22.46,17.79c0.03-0.9,0.09-1.63,0.19-2.22v0.07c0.2-0.85,0.56-1.63,1.08-2.35
					c0.52-0.72,1.15-1.34,1.87-1.88c0.72-0.54,1.53-0.95,2.43-1.24c0.9-0.29,1.82-0.44,2.77-0.44l5.69,0c2.39,0,4.24,0.59,5.54,1.78
					c1.3,1.19,1.99,3.21,2.09,6.08c0.01,0.12,0.07,0.23,0.1,0.34l9.52,0c0.05-0.26,0.09-0.53,0.11-0.81c0.1-2.6-0.32-4.98-1.27-7.15
					C51.62,7.79,50.3,6.1,48.6,4.89c-1.7-1.21-3.58-2.16-5.65-2.85C40.88,1.35,38.73,1,36.48,1L30.8,1c-2.14,0-4.2,0.33-6.17,0.97
					c-1.97,0.65-3.75,1.54-5.35,2.69s-2.94,2.5-4.04,4.06c-1.1,1.57-1.85,3.29-2.25,5.17l0.08-0.07c-0.25,0.9-0.39,1.71-0.41,2.45
					c-0.02,0.56-0.02,1.11-0.03,1.65l9.84,0C22.47,17.88,22.46,17.84,22.46,17.79z"/>
				<path class="st11" d="M22.46,17.79c0.03-0.9,0.09-1.63,0.19-2.22v0.07c0.2-0.85,0.56-1.63,1.08-2.35
					c0.52-0.72,1.15-1.34,1.87-1.88c0.72-0.54,1.53-0.95,2.43-1.24c0.9-0.29,1.82-0.44,2.77-0.44l5.69,0c2.39,0,4.24,0.59,5.54,1.78
					c1.3,1.19,1.99,3.21,2.09,6.08c0.01,0.12,0.07,0.23,0.1,0.34l9.52,0c0.05-0.26,0.09-0.53,0.11-0.81c0.1-2.6-0.32-4.98-1.27-7.15
					C51.62,7.79,50.3,6.1,48.6,4.89c-1.7-1.21-3.58-2.16-5.65-2.85C40.88,1.35,38.73,1,36.48,1L30.8,1c-2.14,0-4.2,0.33-6.17,0.97
					c-1.97,0.65-3.75,1.54-5.35,2.69s-2.94,2.5-4.04,4.06c-1.1,1.57-1.85,3.29-2.25,5.17l0.08-0.07c-0.25,0.9-0.39,1.71-0.41,2.45
					c-0.02,0.56-0.02,1.11-0.03,1.65l9.84,0C22.47,17.88,22.46,17.84,22.46,17.79z"/>
			</g>
			<g>
				<path class="st9" d="M45.72,39.45c-0.03,0.33-0.04,0.62-0.04,0.84s-0.01,0.45-0.04,0.67s-0.06,0.45-0.11,0.67
					c-0.35,1.79-1.38,3.2-3.1,4.23c-1.72,1.03-3.7,1.55-5.95,1.55l-5.69,0c-1.95,0-3.68-0.54-5.2-1.61s-2.48-2.44-2.88-4.1
					c-0.05-0.45-0.09-0.82-0.11-1.11c-0.03-0.29-0.04-0.53-0.04-0.71c0-0.34,0-0.6,0-0.81h-9.94c0,0.6,0.01,1.2,0.03,1.79
					c0.03,0.74,0.19,1.8,0.49,3.19c0.3,1.48,1,2.93,2.09,4.37c1.59,2.33,3.76,4.18,6.51,5.54C24.49,55.32,27.51,56,30.8,56h5.69
					c2.69,0,5.2-0.3,7.52-0.91c2.32-0.6,4.33-1.58,6.02-2.92c0.85-0.67,1.62-1.51,2.32-2.52c0.7-1.01,1.3-2.1,1.8-3.29
					c0.5-1.19,0.88-2.43,1.16-3.73c0.25-1.19,0.37-2.38,0.39-3.57l-10,0C45.7,39.19,45.73,39.32,45.72,39.45z"/>
				<path class="st11" d="M45.72,39.45c-0.03,0.33-0.04,0.62-0.04,0.84s-0.01,0.45-0.04,0.67s-0.06,0.45-0.11,0.67
					c-0.35,1.79-1.38,3.2-3.1,4.23c-1.72,1.03-3.7,1.55-5.95,1.55l-5.69,0c-1.95,0-3.68-0.54-5.2-1.61s-2.48-2.44-2.88-4.1
					c-0.05-0.45-0.09-0.82-0.11-1.11c-0.03-0.29-0.04-0.53-0.04-0.71c0-0.34,0-0.6,0-0.81h-9.94c0,0.6,0.01,1.2,0.03,1.79
					c0.03,0.74,0.19,1.8,0.49,3.19c0.3,1.48,1,2.93,2.09,4.37c1.59,2.33,3.76,4.18,6.51,5.54C24.49,55.32,27.51,56,30.8,56h5.69
					c2.69,0,5.2-0.3,7.52-0.91c2.32-0.6,4.33-1.58,6.02-2.92c0.85-0.67,1.62-1.51,2.32-2.52c0.7-1.01,1.3-2.1,1.8-3.29
					c0.5-1.19,0.88-2.43,1.16-3.73c0.25-1.19,0.37-2.38,0.39-3.57l-10,0C45.7,39.19,45.73,39.32,45.72,39.45z"/>
			</g>
			<path class="st4" d="M45.65,38.41c-0.07-0.36-0.2-0.72-0.37-1.07c-0.18-0.36-0.41-0.67-0.71-0.94c-1.05-0.81-2.64-1.43-4.79-1.88
				c-2.15-0.45-4.56-0.96-7.26-1.55c-2.39-0.49-4.78-1.05-7.14-1.68c-2.37-0.63-4.5-1.44-6.4-2.45c-1.9-1.01-3.43-2.27-4.6-3.79
				c-1.17-1.52-1.76-3.4-1.76-5.64l0-0.94c0-0.17,0.01-0.36,0.01-0.53l-11,0c-0.9,0-1.63,0.73-1.63,1.63l0,17.89
				c0,0.9,0.73,1.63,1.63,1.63l11,0h9.94l23.12,0C45.69,38.85,45.7,38.63,45.65,38.41z M12.62,38.74v-0.13c0,0.04,0,0.07,0,0.11
				C12.62,38.73,12.62,38.73,12.62,38.74z"/>
			<path class="st4" d="M53.73,17.93l-9.52,0l-21.74,0c0.02,0.85,0.47,1.67,1.37,2.48c1,0.9,2.07,1.48,3.22,1.75l8.6,2.15
				c2.24,0.58,4.16,1.06,5.76,1.44c1.6,0.38,2.87,0.73,3.81,1.04c1,0.31,1.93,0.66,2.81,1.04c0.87,0.38,1.68,0.8,2.43,1.24
				c1.55,0.94,2.8,2.22,3.78,3.83c0.97,1.61,1.46,3.56,1.46,5.84c0,0.11-0.02,0.22-0.02,0.33l12.61,0c0.9,0,1.63-0.73,1.63-1.63
				V19.56c0-0.9-0.73-1.63-1.63-1.63L53.73,17.93z"/>
			<path class="st5" d="M54.25,32.9c-0.97-1.61-2.23-2.89-3.78-3.83c-0.75-0.45-1.56-0.86-2.43-1.24c-0.87-0.38-1.81-0.73-2.81-1.04
				c-0.95-0.31-2.22-0.66-3.81-1.04c-1.6-0.38-3.52-0.86-5.76-1.44l-8.6-2.15c-1.15-0.27-2.22-0.85-3.22-1.75
				c-0.9-0.8-1.34-1.63-1.37-2.48l-9.84,0c0,0.18-0.01,0.36-0.01,0.53l0,0.94c0,2.24,0.59,4.12,1.76,5.64
				c1.17,1.52,2.7,2.79,4.6,3.79c1.89,1.01,4.03,1.82,6.4,2.45c2.37,0.63,4.75,1.19,7.14,1.68c2.69,0.58,5.11,1.1,7.26,1.55
				c2.14,0.45,3.74,1.07,4.79,1.88c0.3,0.27,0.54,0.58,0.71,0.94c0.17,0.36,0.3,0.72,0.37,1.07c0.05,0.23,0.04,0.45,0.05,0.66l10,0
				c0-0.11,0.02-0.22,0.02-0.33C55.71,36.46,55.22,34.51,54.25,32.9z"/>
			<path class="st4" d="M12.62,38.74c0-0.01,0-0.01,0-0.02c0-0.04,0-0.07,0-0.11V38.74z"/>
		</g>
		<g>
			<g>
				<path class="st4" d="M83.93,43.23V10.95c0-0.33,0.24-0.57,0.57-0.57h1.48c0.29,0,0.53,0.14,0.67,0.38l9.22,14.57
					c0.05,0.1,0.24,0.1,0.29,0l9.27-14.57c0.14-0.24,0.38-0.38,0.67-0.38h1.48c0.33,0,0.57,0.24,0.57,0.57v32.29
					c0,0.33-0.24,0.57-0.57,0.57h-1.38c-0.33,0-0.57-0.24-0.57-0.57V15.29c0-0.19-0.14-0.24-0.24-0.05l-8.26,13.09
					c-0.14,0.29-0.38,0.38-0.67,0.38h-0.76c-0.29,0-0.53-0.14-0.67-0.38L86.7,15.25c-0.1-0.19-0.24-0.14-0.24,0.05v27.94
					c0,0.33-0.24,0.57-0.57,0.57H84.5C84.17,43.81,83.93,43.57,83.93,43.23z"/>
				<path class="st4" d="M130.21,27.38v15.86c0,0.33-0.24,0.57-0.57,0.57h-1.38c-0.33,0-0.57-0.24-0.57-0.57v-2.05
					c0-0.14-0.1-0.24-0.24-0.1c-1.72,2.05-4.63,3.1-7.69,3.1c-3.96,0-7.83-1.81-7.83-6.78c0-4.73,3.68-7.64,9.84-7.64h5.73
					c0.09,0,0.19-0.1,0.19-0.19v-2.15c0-3.39-1.72-5.83-6.11-5.83c-3.25,0-5.44,1.39-5.97,3.63c-0.1,0.33-0.33,0.53-0.67,0.48
					l-1.48-0.19c-0.33-0.05-0.57-0.24-0.53-0.53c0.62-3.34,3.96-5.64,8.69-5.64C127.34,19.35,130.21,22.6,130.21,27.38z
					 M127.68,36.4v-4.35c0-0.1-0.1-0.19-0.19-0.19h-5.45c-4.49,0-7.59,1.96-7.59,5.4c0,3.25,2.58,4.73,5.78,4.73
					C123.95,41.99,127.68,40.13,127.68,36.4z M125.34,10.33l-3.06,5.11c-0.14,0.29-0.38,0.38-0.67,0.38h-1.1
					c-0.43,0-0.57-0.29-0.38-0.67l2.82-5.11c0.14-0.24,0.43-0.38,0.72-0.38h1.29C125.39,9.66,125.58,9.9,125.34,10.33z"/>
				<path class="st4" d="M132.98,37.79v-0.53c0-0.33,0.24-0.57,0.57-0.57h1.34c0.33,0,0.57,0.19,0.57,0.48v0.53
					c0,2.24,2.48,4.3,6.21,4.3c3.63,0,6.07-1.96,6.07-4.49c0-2.87-3.1-3.68-6.45-4.68c-4.06-1.24-8.17-2.53-8.17-6.88
					c0-3.92,3.44-6.4,8.41-6.4c5.16,0,8.55,2.72,8.55,6.35v0.05c0,0.33-0.24,0.57-0.57,0.57h-1.29c-0.33,0-0.57-0.14-0.57-0.33V25.9
					c0-2.34-2.34-4.25-6.16-4.25c-3.53,0-5.92,1.62-5.92,4.16c0,2.67,2.82,3.58,6.21,4.58c4.06,1.19,8.5,2.44,8.5,6.97
					c0,3.96-3.39,6.69-8.55,6.69C136.47,44.05,132.98,41.23,132.98,37.79z"/>
				<path class="st4" d="M158.24,35.5v-1.48c0-0.33,0.24-0.57,0.57-0.57h1.29c0.33,0,0.57,0.24,0.57,0.57v1.34
					c0,3.87,3.39,6.59,9.03,6.59c5.4,0,8.12-2.44,8.12-6.21c0-3.58-2.63-5.4-9.22-8.17c-5.92-2.48-9.84-4.11-9.84-9.41
					c0-5.25,3.82-8.17,10.17-8.17c7.07,0,11.13,3.49,11.13,8.79v1c0,0.33-0.24,0.57-0.57,0.57h-1.38c-0.33,0-0.57-0.24-0.57-0.57
					v-0.86c0-3.87-3.06-6.69-8.74-6.69c-4.82,0-7.55,2.05-7.55,5.83c0,3.92,2.82,5.11,8.74,7.5c6.26,2.53,10.36,4.92,10.36,10.08
					c0,5.01-3.82,8.55-10.89,8.55C162.54,44.19,158.24,40.75,158.24,35.5z"/>
				<path class="st4" d="M183.18,12.81c0-1.19,0.96-2.05,2.2-2.05c1.29,0,2.2,0.86,2.2,2.05c0,1.19-0.91,2.1-2.2,2.1
					C184.13,14.91,183.18,14,183.18,12.81z M184.13,43.23V20.31c0-0.33,0.24-0.57,0.57-0.57h1.38c0.33,0,0.57,0.24,0.57,0.57v22.92
					c0,0.33-0.24,0.57-0.57,0.57h-1.38C184.37,43.81,184.13,43.57,184.13,43.23z"/>
				<path class="st4" d="M207.2,19.74h1.39c0.33,0,0.57,0.24,0.57,0.57v22.97c0,7.4-4.78,10.32-12.32,10.03
					c-0.38-0.05-0.57-0.29-0.57-0.62l0.05-1.19c0-0.33,0.19-0.57,0.57-0.53c6.83,0.19,9.74-2.29,9.74-7.74v-2.39
					c0-0.19-0.14-0.24-0.24-0.1c-1.29,1.96-3.39,3.29-6.54,3.29c-4.11,0-7.5-2.34-8.55-6.35c-0.38-1.43-0.53-3.39-0.53-5.88
					c0-2.53,0.1-4.54,0.57-6.16c1-3.68,4.11-6.3,8.41-6.3c3.06,0,5.25,1.24,6.64,3.25c0.1,0.14,0.24,0.05,0.24-0.09v-2.2
					C206.63,19.98,206.87,19.74,207.2,19.74z M206.63,31.77c0-3.63-0.05-4.11-0.24-5.11c-0.48-2.77-2.72-5.06-6.16-5.06
					c-3.49,0-5.73,2.29-6.5,5.06c-0.29,0.96-0.43,2.25-0.43,5.06c0,2.82,0.24,4.39,0.43,5.06c0.67,2.82,3.06,5.06,6.5,5.06
					c3.58,0,5.68-2.34,6.16-5.06C206.58,35.88,206.63,35.4,206.63,31.77z"/>
				<path class="st4" d="M231.13,27.57v15.67c0,0.33-0.24,0.57-0.57,0.57h-1.38c-0.33,0-0.57-0.24-0.57-0.57V28.05
					c0-3.77-2.53-6.4-6.16-6.4c-3.87,0-6.45,2.58-6.45,6.3v15.28c0,0.33-0.24,0.57-0.57,0.57h-1.38c-0.33,0-0.57-0.24-0.57-0.57
					V20.31c0-0.33,0.24-0.57,0.57-0.57h1.38c0.33,0,0.57,0.24,0.57,0.57v2.24c0,0.19,0.1,0.24,0.19,0.1
					c1.38-2.1,3.77-3.25,6.78-3.25C227.83,19.4,231.13,22.65,231.13,27.57z"/>
				<path class="st4" d="M234.95,12.81c0-1.19,0.96-2.05,2.2-2.05c1.29,0,2.2,0.86,2.2,2.05c0,1.19-0.91,2.1-2.2,2.1
					C235.91,14.91,234.95,14,234.95,12.81z M235.91,43.23V20.31c0-0.33,0.24-0.57,0.57-0.57h1.38c0.33,0,0.57,0.24,0.57,0.57v22.92
					c0,0.33-0.24,0.57-0.57,0.57h-1.38C236.14,43.81,235.91,43.57,235.91,43.23z"/>
				<path class="st4" d="M252.1,10.38h1.15c0.33,0,0.57,0.24,0.57,0.57v1.1c0,0.33-0.24,0.57-0.57,0.57h-0.96
					c-3.96,0-4.87,1.91-4.87,5.68v1.24c0,0.1,0.1,0.19,0.19,0.19h5.49c0.33,0,0.57,0.24,0.57,0.57v1.19c0,0.33-0.24,0.57-0.57,0.57
					h-5.49c-0.1,0-0.19,0.1-0.19,0.19v20.97c0,0.33-0.24,0.57-0.57,0.57h-1.38c-0.33,0-0.57-0.24-0.57-0.57V22.27
					c0-0.1-0.1-0.19-0.19-0.19h-3.06c-0.33,0-0.57-0.24-0.57-0.57v-1.19c0-0.33,0.24-0.57,0.57-0.57h3.06c0.1,0,0.19-0.1,0.19-0.19
					v-1.34C244.88,12.86,246.41,10.38,252.1,10.38z M263.99,12.81c0,1.19-0.91,2.1-2.2,2.1c-1.24,0-2.2-0.91-2.2-2.1
					c0-1.19,0.96-2.05,2.2-2.05C263.08,10.76,263.99,11.62,263.99,12.81z M260.55,43.23V20.31c0-0.33,0.24-0.57,0.57-0.57h1.39
					c0.33,0,0.57,0.24,0.57,0.57v22.92c0,0.33-0.24,0.57-0.57,0.57h-1.39C260.79,43.81,260.55,43.57,260.55,43.23z"/>
				<path class="st4" d="M267.95,37.69c-0.43-1.58-0.62-3.49-0.62-5.97c0-2.72,0.24-4.44,0.62-5.92c1-3.82,4.35-6.45,8.93-6.45
					c4.63,0,8.12,2.72,8.98,6.02c0.14,0.43,0.24,0.91,0.29,1.24c0.05,0.38-0.19,0.57-0.53,0.62l-1.34,0.19
					c-0.33,0.05-0.57-0.14-0.67-0.53c0-0.19-0.05-0.38-0.09-0.57c-0.57-2.58-3.1-4.73-6.64-4.73c-3.58,0-5.97,2.1-6.59,5.06
					c-0.24,1-0.43,2.82-0.43,5.11c0,2.44,0.19,4.11,0.43,5.06c0.62,3.06,3.01,5.11,6.59,5.11c3.53,0,6.16-2.1,6.64-4.78l0.05-0.19
					c0.05-0.33,0.33-0.48,0.67-0.43l1.29,0.14c0.33,0.05,0.57,0.29,0.53,0.67c-0.05,0.19-0.1,0.48-0.19,0.76
					c-0.86,3.53-4.39,6.07-8.98,6.07S269,41.56,267.95,37.69z"/>
				<path class="st4" d="M305.78,27.38v15.86c0,0.33-0.24,0.57-0.57,0.57h-1.38c-0.33,0-0.57-0.24-0.57-0.57v-2.05
					c0-0.14-0.1-0.24-0.24-0.1c-1.72,2.05-4.63,3.1-7.69,3.1c-3.96,0-7.83-1.81-7.83-6.78c0-4.73,3.68-7.64,9.84-7.64h5.73
					c0.09,0,0.19-0.1,0.19-0.19v-2.15c0-3.39-1.72-5.83-6.11-5.83c-3.25,0-5.44,1.39-5.97,3.63c-0.1,0.33-0.33,0.53-0.67,0.48
					l-1.48-0.19c-0.33-0.05-0.57-0.24-0.53-0.53c0.62-3.34,3.96-5.64,8.69-5.64C302.91,19.35,305.78,22.6,305.78,27.38z
					 M303.25,36.4v-4.35c0-0.1-0.1-0.19-0.19-0.19h-5.45c-4.49,0-7.59,1.96-7.59,5.4c0,3.25,2.58,4.73,5.78,4.73
					C299.52,41.99,303.25,40.13,303.25,36.4z"/>
				<path class="st4" d="M325.22,10.38h1.38c0.33,0,0.57,0.24,0.57,0.57v32.29c0,0.33-0.24,0.57-0.57,0.57h-1.38
					c-0.33,0-0.57-0.24-0.57-0.57v-2.25c0-0.19-0.14-0.24-0.24-0.1c-1.38,2.1-3.63,3.3-6.45,3.3c-4.44,0-7.5-2.53-8.55-6.35
					c-0.43-1.62-0.53-3.49-0.53-6.02c0-2.48,0.05-4.39,0.48-6.02c1-3.87,4.11-6.45,8.6-6.45c2.82,0,5.06,1.19,6.45,3.25
					c0.1,0.14,0.24,0.05,0.24-0.09V10.95C324.64,10.61,324.88,10.38,325.22,10.38z M324.6,31.82c0-3.58-0.19-4.63-0.62-5.83
					c-0.62-2.48-2.67-4.39-5.73-4.39c-3.1,0-5.35,1.86-6.07,4.35c-0.48,1.15-0.76,2.2-0.76,5.83c0,3.49,0.24,4.49,0.62,5.68
					c0.67,2.67,3.06,4.49,6.21,4.49c3.1,0,5.11-1.96,5.78-4.49C324.4,36.36,324.6,35.31,324.6,31.82z"/>
				<path class="st4" d="M331.66,37.69c-0.48-1.58-0.57-3.53-0.57-5.97c0-2.53,0.14-4.39,0.53-5.92c1.1-3.87,4.44-6.45,9.03-6.45
					c4.54,0,7.93,2.58,8.98,6.45c0.43,1.58,0.53,3.53,0.53,5.92c0,2.48-0.1,4.39-0.53,5.97c-1.05,3.92-4.49,6.5-8.98,6.5
					C336.06,44.19,332.76,41.61,331.66,37.69z M347.28,36.83c0.24-1.1,0.29-2.96,0.29-5.06c0-2.34-0.05-4.01-0.29-5.06
					c-0.72-3.06-3.2-5.11-6.69-5.11s-5.92,2.05-6.64,5.11c-0.24,1.05-0.29,2.87-0.29,5.06c0,2.29,0.05,4.01,0.29,5.06
					c0.72,3.1,3.15,5.11,6.69,5.11C344.08,41.94,346.57,39.89,347.28,36.83z"/>
			</g>
			<g>
				<path class="st9" d="M366.97,35.5v-1.48c0-0.33,0.24-0.57,0.57-0.57h1.29c0.33,0,0.57,0.24,0.57,0.57v1.34
					c0,3.87,3.39,6.59,9.03,6.59c5.4,0,8.12-2.44,8.12-6.21c0-3.58-2.63-5.4-9.22-8.17c-5.92-2.48-9.84-4.11-9.84-9.41
					c0-5.25,3.82-8.17,10.17-8.17c7.07,0,11.13,3.49,11.13,8.79v1c0,0.33-0.24,0.57-0.57,0.57h-1.38c-0.33,0-0.57-0.24-0.57-0.57
					v-0.86c0-3.87-3.06-6.69-8.74-6.69c-4.82,0-7.55,2.05-7.55,5.83c0,3.92,2.82,5.11,8.74,7.5c6.26,2.53,10.36,4.92,10.36,10.08
					c0,5.01-3.82,8.55-10.89,8.55C371.27,44.19,366.97,40.75,366.97,35.5z"/>
				<path class="st9" d="M407.81,38.08c0.19-0.33,0.43-0.43,0.76-0.29l0.86,0.33c0.33,0.14,0.48,0.43,0.33,0.76
					c-1.34,3.15-4.39,5.3-8.64,5.3c-4.49,0-7.55-2.39-8.74-6.07c-0.53-1.72-0.67-3.77-0.67-6.4c0-2.58,0-4.25,0.38-5.73
					c1-3.96,4.3-6.64,8.93-6.64c5.21,0,8.31,2.96,9.12,7.5c0.29,1.29,0.33,2.39,0.33,5.11c0,0.43-0.24,0.62-0.57,0.62h-15.52
					c-0.1,0-0.19,0.05-0.19,0.19c0,1.91,0.05,3.25,0.24,4.11c0.67,3.01,3.2,5.11,6.88,5.11C404.46,41.94,406.76,40.42,407.81,38.08z
					 M394.19,30.34c0,0.14,0.1,0.19,0.19,0.19h13.33c0.1,0,0.19-0.05,0.19-0.19c0-1.53-0.1-2.91-0.24-3.63
					c-0.67-3.01-3.1-5.11-6.64-5.11s-5.87,2.05-6.5,4.97C394.29,27.43,394.24,28.71,394.19,30.34z"/>
				<path class="st9" d="M431.93,27.57v15.67c0,0.33-0.24,0.57-0.57,0.57h-1.38c-0.33,0-0.57-0.24-0.57-0.57V28.05
					c0-3.77-2.53-6.4-6.16-6.4c-3.87,0-6.45,2.58-6.45,6.3v15.28c0,0.33-0.24,0.57-0.57,0.57h-1.38c-0.33,0-0.57-0.24-0.57-0.57
					V20.31c0-0.33,0.24-0.57,0.57-0.57h1.38c0.33,0,0.57,0.24,0.57,0.57v2.24c0,0.19,0.1,0.24,0.19,0.1
					c1.38-2.1,3.77-3.25,6.78-3.25C428.63,19.4,431.93,22.65,431.93,27.57z M418.5,14.43c-0.24,0.29-0.48,0.38-0.81,0.14l-0.43-0.29
					c-0.33-0.24-0.38-0.53-0.19-0.81c1-1.58,2.34-2.2,3.68-2.2c1.19,0,2.01,0.57,2.87,1.1c0.76,0.48,1.58,1.05,2.39,1.05
					c0.81,0,1.58-0.24,2.34-1.38c0.24-0.29,0.53-0.38,0.81-0.19l0.43,0.29c0.29,0.19,0.38,0.48,0.24,0.76
					c-1.05,1.77-2.67,2.44-3.87,2.44s-2.1-0.62-2.87-1.15c-0.76-0.57-1.34-1-2.2-1C419.94,13.19,419.32,13.43,418.5,14.43z"/>
				<path class="st9" d="M452.89,27.38v15.86c0,0.33-0.24,0.57-0.57,0.57h-1.38c-0.33,0-0.57-0.24-0.57-0.57v-2.05
					c0-0.14-0.1-0.24-0.24-0.1c-1.72,2.05-4.63,3.1-7.69,3.1c-3.96,0-7.83-1.81-7.83-6.78c0-4.73,3.68-7.64,9.84-7.64h5.73
					c0.09,0,0.19-0.1,0.19-0.19v-2.15c0-3.39-1.72-5.83-6.11-5.83c-3.25,0-5.44,1.39-5.97,3.63c-0.1,0.33-0.33,0.53-0.67,0.48
					l-1.48-0.19c-0.33-0.05-0.57-0.24-0.53-0.53c0.62-3.34,3.96-5.64,8.69-5.64C450.03,19.35,452.89,22.6,452.89,27.38z
					 M450.36,36.4v-4.35c0-0.1-0.1-0.19-0.19-0.19h-5.45c-4.49,0-7.59,1.96-7.59,5.4c0,3.25,2.58,4.73,5.78,4.73
					C446.64,41.99,450.36,40.13,450.36,36.4z"/>
				<path class="st9" d="M474.58,27.57v15.67c0,0.33-0.24,0.57-0.57,0.57h-1.38c-0.33,0-0.57-0.24-0.57-0.57V28.05
					c0-3.77-2.53-6.4-6.16-6.4c-3.87,0-6.45,2.58-6.45,6.3v15.28c0,0.33-0.24,0.57-0.57,0.57h-1.38c-0.33,0-0.57-0.24-0.57-0.57
					V20.31c0-0.33,0.24-0.57,0.57-0.57h1.38c0.33,0,0.57,0.24,0.57,0.57v2.24c0,0.19,0.1,0.24,0.19,0.1
					c1.38-2.1,3.77-3.25,6.78-3.25C471.28,19.4,474.58,22.65,474.58,27.57z"/>
				<path class="st9" d="M488.43,21.89h-5.49c-0.1,0-0.19,0.1-0.19,0.19v15.04c0,3.34,1.53,4.39,4.63,4.39h1
					c0.33,0,0.57,0.24,0.57,0.57v1.1c0,0.33-0.19,0.57-0.57,0.57c-0.48,0-0.91,0.05-1.34,0.05c-4.01,0-6.73-1.15-6.78-6.02V22.08
					c0-0.09-0.09-0.19-0.19-0.19h-2.77c-0.33,0-0.57-0.24-0.57-0.57v-1c0-0.33,0.24-0.57,0.57-0.57h2.77c0.1,0,0.19-0.1,0.19-0.19
					V14.2c0-0.33,0.24-0.57,0.57-0.57h1.34c0.33,0,0.57,0.24,0.57,0.57v5.35c0,0.1,0.1,0.19,0.19,0.19h5.49
					c0.33,0,0.57,0.24,0.57,0.57v1C489,21.65,488.76,21.89,488.43,21.89z"/>
				<path class="st9" d="M507.05,38.08c0.19-0.33,0.43-0.43,0.76-0.29l0.86,0.33c0.33,0.14,0.48,0.43,0.33,0.76
					c-1.34,3.15-4.39,5.3-8.64,5.3c-4.49,0-7.55-2.39-8.74-6.07c-0.53-1.72-0.67-3.77-0.67-6.4c0-2.58,0-4.25,0.38-5.73
					c1-3.96,4.3-6.64,8.93-6.64c5.21,0,8.31,2.96,9.12,7.5c0.29,1.29,0.33,2.39,0.33,5.11c0,0.43-0.24,0.62-0.57,0.62h-15.52
					c-0.1,0-0.19,0.05-0.19,0.19c0,1.91,0.05,3.25,0.24,4.11c0.67,3.01,3.2,5.11,6.88,5.11C503.71,41.94,506,40.42,507.05,38.08z
					 M493.44,30.34c0,0.14,0.1,0.19,0.19,0.19h13.33c0.1,0,0.19-0.05,0.19-0.19c0-1.53-0.1-2.91-0.24-3.63
					c-0.67-3.01-3.1-5.11-6.64-5.11s-5.87,2.05-6.5,4.97C493.54,27.43,493.49,28.71,493.44,30.34z"/>
			</g>
			<circle class="st10" cx="358.43" cy="41.34" r="3"/>
		</g>
	</g>
</g>
</svg>
